HIERARCHY
ROOT Hips
{
    OFFSET 0.000000 0.000000 0.000000
    CHANNELS 6 Xposition Yposition Zposition Zrotation Xrotation Yrotation
    JOINT Spine
    {
        OFFSET -0.000000 14.517291 0.000000
        CHANNELS 3 Zrotation Xrotation Yrotation
        JOINT Spine1
        {
            OFFSET -0.000000 37.558300 0.000000
            CHANNELS 3 Zrotation Xrotation Yrotation
            JOINT Neck
            {
                OFFSET -0.000000 37.404057 3.400369
                CHANNELS 3 Zrotation Xrotation Yrotation
                JOINT Head
                {
                    OFFSET -0.000000 24.785618 -3.540803
                    CHANNELS 3 Zrotation Xrotation Yrotation
                    End Site
                    {
                        OFFSET -0.000000 35.408028 0.000000
                    }
                }
            }
            JOINT LeftShoulder
            {
                OFFSET 6.992933 33.973492 -0.192664
                CHANNELS 3 Zrotation Xrotation Yrotation
                JOINT LeftArm
                {
                    OFFSET 21.527611 0.000000 0.000000
                    CHANNELS 3 Zrotation Xrotation Yrotation
                    JOINT LeftForeArm
                    {
                        OFFSET 56.353916 0.000000 0.000000
                        CHANNELS 3 Zrotation Xrotation Yrotation
                        JOINT LeftHand
                        {
                            OFFSET 47.774071 0.000000 0.000000
                            CHANNELS 3 Zrotation Xrotation Yrotation
                            End Site
                            {
                                OFFSET 26.556021 0.000000 0.000000
                            }
                        }
                    }
                }
            }
            JOINT RightShoulder
            {
                OFFSET -7.065357 33.973492 -0.192664
                CHANNELS 3 Zrotation Xrotation Yrotation
                JOINT RightArm
                {
                    OFFSET -21.527611 0.000000 0.000000
                    CHANNELS 3 Zrotation Xrotation Yrotation
                    JOINT RightForeArm
                    {
                        OFFSET -56.353916 0.000000 0.000000
                        CHANNELS 3 Zrotation Xrotation Yrotation
                        JOINT RightHand
                        {
                            OFFSET -47.774071 0.000000 0.000000
                            CHANNELS 3 Zrotation Xrotation Yrotation
                            End Site
                            {
                                OFFSET -26.556021 0.000000 0.000000
                            }
                        }
                    }
                }
            }
        }
    }
    JOINT LeftUpLeg
    {
        OFFSET 17.704014 0.000000 0.000000
        CHANNELS 3 Zrotation Xrotation Yrotation
        JOINT LeftLeg
        {
            OFFSET -0.000000 -81.181816 0.000000
            CHANNELS 3 Zrotation Xrotation Yrotation
            JOINT LeftFoot
            {
                OFFSET -0.000000 -62.821102 0.000000
                CHANNELS 3 Zrotation Xrotation Yrotation
                JOINT LeftToeBase
                {
                    OFFSET -0.000000 -11.507608 26.556021
                    CHANNELS 3 Zrotation Xrotation Yrotation
                    End Site
                    {
                        OFFSET -0.000000 0.000000 7.081605
                    }
                }
            }
        }
    }
    JOINT RightUpLeg
    {
        OFFSET -17.704014 0.000000 0.000000
        CHANNELS 3 Zrotation Xrotation Yrotation
        JOINT RightLeg
        {
            OFFSET -0.000000 -81.181816 0.000000
            CHANNELS 3 Zrotation Xrotation Yrotation
            JOINT RightFoot
            {
                OFFSET -0.000000 -62.821102 0.000000
                CHANNELS 3 Zrotation Xrotation Yrotation
                JOINT RightToeBase
                {
                    OFFSET -0.000000 -11.507608 26.556021
                    CHANNELS 3 Zrotation Xrotation Yrotation
                    End Site
                    {
                        OFFSET -0.000000 0.000000 7.081605
                    }
                }
            }
        }
    }
}
MOTION
Frames:    12
Frame Time:    0.008333
-10.000130    158.109634    -92.239761    -2.051289    -7.026462    49.072815    -4.879654    -2.865345    -7.705225    -1.297754    6.417263    -2.453281    5.711844    -5.942910    -16.449551    11.533727    8.675732    -17.565008    15.071913    3.072683    -31.507801    -28.298569    17.349596    -98.148880    35.471336    -59.120071    -68.087433    -12.392845    -41.881439    -21.470894    -11.084851    -7.985976    -4.955651    17.848696    -26.347485    59.052570    -4.559445    0.694341    15.080019    -7.645650    -1.205805    36.213371    23.515404    2.022432    -4.381531    -9.353988    22.609261    -20.334728    -3.773784    -23.638483    41.259647    0.000000    0.000000    0.000000    -10.003390    -11.388538    -20.614384    4.433992    13.750031    -19.326845    6.477901    10.151802    -11.078447    0.000000    0.000000    0.000000    
-10.030572    158.104324    -92.290154    -2.046005    -7.017294    49.072796    -4.865294    -2.841271    -7.695940    -1.314775    6.368473    -2.450257    5.692924    -5.898489    -16.461481    11.534406    8.646301    -17.568375    15.046896    3.084465    -31.475981    -28.362762    17.392561    -97.919289    35.093430    -59.010483    -68.457253    -12.443730    -41.799461    -21.496761    -11.109873    -7.963154    -4.967208    17.804600    -26.332541    58.976799    -4.589680    0.619136    15.069798    -7.618805    -1.265364    36.169662    23.499748    1.978074    -4.402116    -9.373641    22.657038    -20.336679    -3.735304    -23.644018    41.285870    0.000000    0.000000    0.000000    -10.026175    -11.410583    -20.633291    4.438973    13.752865    -19.304125    6.490476    10.170982    -11.097724    0.000000    0.000000    0.000000    
-10.063776    158.092911    -92.337288    -2.044638    -7.010779    49.068504    -4.838184    -2.829778    -7.688140    -1.348384    6.342587    -2.446497    5.693868    -5.894683    -16.468824    11.496892    8.655876    -17.579376    15.017158    3.077546    -31.416162    -28.367916    17.446825    -97.700912    34.804428    -58.920761    -68.741882    -12.352752    -41.757431    -21.401043    -11.142443    -7.976714    -4.969776    17.790663    -26.326031    58.896847    -4.593656    0.578493    15.064128    -7.553990    -1.284162    36.166283    23.493080    1.930615    -4.404103    -9.394155    22.718103    -20.331949    -3.721015    -23.677946    41.289959    0.000000    0.000000    0.000000    -10.041406    -11.441382    -20.636408    4.440932    13.763521    -19.304884    6.470178    10.188211    -11.088051    0.000000    0.000000    0.000000    
-10.095574    158.081635    -92.387131    -2.040890    -7.001162    49.061081    -4.827719    -2.810160    -7.663328    -1.350790    6.305873    -2.438901    5.679632    -5.860375    -16.484360    11.475560    8.617371    -17.588440    14.980942    3.069420    -31.354784    -28.427216    17.502495    -97.436562    34.258457    -58.780312    -69.292336    -12.056459    -41.765907    -20.860939    -11.188836    -7.984879    -4.993659    17.740889    -26.280716    58.807770    -4.627203    0.503076    15.055019    -7.534905    -1.349117    36.164516    23.479485    1.881038    -4.401647    -9.406910    22.785240    -20.347450    -3.681827    -23.686186    41.307217    0.000000    0.000000    0.000000    -10.062004    -11.471636    -20.626503    4.450491    13.774644    -19.319708    6.458708    10.197120    -11.079685    0.000000    0.000000    0.000000    
-10.122947    158.072357    -92.434731    -2.031717    -6.991547    49.054680    -4.821547    -2.793074    -7.631144    -1.352405    6.271521    -2.428815    5.663058    -5.796480    -16.510401    11.465495    8.553615    -17.603296    14.935861    3.067955    -31.304756    -28.489298    17.559084    -97.145996    33.691631    -58.627190    -69.871346    -11.981688    -41.708199    -20.608652    -11.228771    -7.987361    -5.004531    17.704203    -26.260271    58.712063    -4.641891    0.443704    15.059021    -7.532542    -1.405357    36.160637    23.463324    1.834315    -4.401096    -9.423492    22.856812    -20.365381    -3.654857    -23.705557    41.330650    0.000000    0.000000    0.000000    -10.088646    -11.496082    -20.623377    4.461799    13.781054    -19.337534    6.455853    10.220015    -11.081267    0.000000    0.000000    0.000000    
-10.153043    158.061188    -92.478218    -2.022160    -6.982762    49.051540    -4.809139    -2.773358    -7.597020    -1.359671    6.240030    -2.417806    5.637987    -5.760389    -16.542025    11.448094    8.511404    -17.626362    14.887207    3.074304    -31.216007    -28.440916    17.608366    -96.852692    33.005142    -58.504707    -70.558388    -11.829351    -41.745094    -20.348978    -11.281612    -8.004034    -5.043103    17.677999    -26.214218    58.635826    -4.671817    0.378153    15.059381    -7.516403    -1.459419    36.131348    23.453005    1.787269    -4.399637    -9.453769    22.922529    -20.346889    -3.621729    -23.703274    41.327095    0.000000    0.000000    0.000000    -10.113447    -11.523271    -20.637403    4.462900    13.806474    -19.312864    6.476006    10.208737    -11.096664    0.000000    0.000000    0.000000    
-10.186620    158.049637    -92.522614    -2.011328    -6.975530    49.038105    -4.799631    -2.757774    -7.543529    -1.371103    6.216800    -2.399957    5.620778    -5.691014    -16.579586    11.448491    8.429483    -17.650469    14.845312    3.078400    -31.145803    -28.491838    17.634190    -96.478577    32.058662    -58.258583    -71.499069    -11.680612    -41.682671    -20.105068    -11.306797    -8.003672    -5.081618    17.618235    -26.175316    58.552258    -4.715892    0.318966    15.055244    -7.492297    -1.505467    36.136616    23.445862    1.742545    -4.398093    -9.486805    22.997475    -20.345222    -3.599207    -23.720196    41.342205    0.000000    0.000000    0.000000    -10.133766    -11.547398    -20.628332    4.469858    13.815146    -19.341051    6.460605    10.225125    -11.057747    0.000000    0.000000    0.000000    
-10.218735    158.036774    -92.563881    -2.003101    -6.962516    49.033646    -4.787734    -2.746816    -7.499098    -1.374329    6.183840    -2.385658    5.548599    -5.580173    -16.632021    11.507766    8.323037    -17.670834    14.761660    3.071500    -31.051193    -28.538273    17.682465    -96.049980    31.013725    -57.944008    -72.576904    -11.035934    -41.657093    -19.353888    -11.360622    -7.993759    -5.100727    17.579622    -26.156876    58.461555    -4.742818    0.263963    15.053719    -7.495952    -1.558058    36.135887    23.439661    1.694675    -4.386212    -9.516925    23.060951    -20.341444    -3.598209    -23.741222    41.330067    0.000000    0.000000    0.000000    -10.162877    -11.573888    -20.633284    4.483271    13.827353    -19.343067    6.467654    10.230704    -11.065472    0.000000    0.000000    0.000000    
-10.256789    158.026367    -92.604866    -2.001351    -6.950656    49.025780    -4.777157    -2.746013    -7.441689    -1.378197    6.156118    -2.366801    5.504901    -5.482868    -16.679529    11.538533    8.237411    -17.696400    14.703222    3.085574    -30.962076    -28.637711    17.693836    -95.574005    29.712048    -57.557018    -73.889519    -10.816970    -41.550995    -18.950117    -11.395242    -7.983314    -5.112097    17.519423    -26.135727    58.354053    -4.780788    0.219893    15.040396    -7.465127    -1.585941    36.113998    23.442619    1.644367    -4.395915    -9.557690    23.115734    -20.337572    -3.577799    -23.746532    41.339146    0.000000    0.000000    0.000000    -10.180422    -11.606293    -20.635489    4.485693    13.839264    -19.378891    6.459920    10.241683    -11.023651    0.000000    0.000000    0.000000    
-10.295341    158.015396    -92.641243    -1.998628    -6.938446    49.017849    -4.773762    -2.738787    -7.376741    -1.376212    6.121014    -2.345849    5.487588    -5.381223    -16.730730    11.542342    8.137980    -17.731264    14.638104    3.064488    -30.864954    -28.730438    17.763666    -95.076996    28.907005    -56.927841    -74.773010    -10.481250    -40.955132    -18.805796    -11.433309    -7.968052    -5.123258    17.434519    -26.107397    58.217121    -4.819768    0.161990    15.049028    -7.438564    -1.631304    36.136429    23.447077    1.593943    -4.364705    -9.591783    23.181053    -20.346701    -3.561707    -23.748220    41.333157    0.000000    0.000000    0.000000    -10.199195    -11.635130    -20.642918    4.493231    13.854351    -19.381821    6.470657    10.227543    -11.002938    0.000000    0.000000    0.000000    
-10.333492    158.003952    -92.680313    -1.998739    -6.920480    49.011002    -4.752038    -2.731939    -7.321732    -1.400930    6.086542    -2.326955    5.421277    -5.302071    -16.779915    11.622364    8.073644    -17.753967    14.595198    3.089042    -30.676455    -28.771873    17.800234    -94.650070    27.750925    -56.442547    -75.954803    -10.435134    -40.681103    -18.576874    -11.476963    -7.943723    -5.128669    17.372919    -26.080685    58.097054    -4.884594    0.125884    15.048709    -7.407764    -1.648513    36.135376    23.448956    1.541573    -4.346240    -9.639063    23.229446    -20.303450    -3.570158    -23.754965    41.300655    0.000000    0.000000    0.000000    -10.220875    -11.669747    -20.656469    4.495016    13.864671    -19.407936    6.456916    10.240170    -10.960750    0.000000    0.000000    0.000000    
-10.376613    157.991180    -92.721565    -2.012671    -6.890323    49.005173    -4.725172    -2.745656    -7.252223    -1.440349    6.054032    -2.302208    5.368969    -5.223683    -16.848303    11.696140    8.013374    -17.800465    14.564280    3.142273    -30.446817    -28.803915    17.870163    -94.248192    26.019756    -56.072937    -77.653419    -10.297045    -40.840233    -18.211313    -11.510188    -7.921913    -5.139749    17.295727    -26.051945    57.957375    -4.945131    0.058371    15.059549    -7.391960    -1.704189    36.159386    23.448435    1.463356    -4.299788    -9.657183    23.301559    -20.324652    -3.555199    -23.757074    41.281433    0.000000    0.000000    0.000000    -10.243924    -11.725716    -20.676453    4.498441    13.877204    -19.430918    6.449255    10.251832    -10.927032    0.000000    0.000000    0.000000    
